STARTFONT 2.1
FONT -FontForge-Bitstream Vera Sans Mono-Book-R-Normal-SansMono--26-250-75-75-P-159-ISO8859-1
SIZE 25 75 75
FONTBOUNDINGBOX 16 30 0 -6
COMMENT "Generated by fontforge, http://fontforge.sourceforge.net"
COMMENT "Copyright (c) 2003 by Bitstream, Inc. All Rights Reserved."
STARTPROPERTIES 40
FOUNDRY "FontForge"
FAMILY_NAME "Bitstream Vera Sans Mono"
WEIGHT_NAME "Book"
SLANT "R"
SETWIDTH_NAME "Normal"
ADD_STYLE_NAME "SansMono"
PIXEL_SIZE 26
POINT_SIZE 250
RESOLUTION_X 75
RESOLUTION_Y 75
SPACING "P"
AVERAGE_WIDTH 159
CHARSET_REGISTRY "ISO8859"
CHARSET_ENCODING "1"
FONTNAME_REGISTRY ""
CHARSET_COLLECTIONS "ISO8859-9 ISOLatin1Encoding"
FONT_NAME "BitstreamVeraSansMono-Roman"
FACE_NAME "Bitstream Vera Sans Mono"
COPYRIGHT "Copyright (c) 2003 by Bitstream, Inc. All Rights Reserved."
FONT_VERSION "Release 1.10"
FONT_ASCENT 20
FONT_DESCENT 6
UNDERLINE_POSITION -4
UNDERLINE_THICKNESS 2
X_HEIGHT 13
CAP_HEIGHT 18
RAW_ASCENT 759
RAW_DESCENT 240
NORM_SPACE 16
RELATIVE_WEIGHT 40
RELATIVE_SETWIDTH 50
SUPERSCRIPT_X 0
SUPERSCRIPT_Y 7
SUPERSCRIPT_SIZE 15
SUBSCRIPT_X 0
SUBSCRIPT_Y -5
SUBSCRIPT_SIZE 15
FIGURE_WIDTH 16
AVG_LOWERCASE_WIDTH 160
AVG_UPPERCASE_WIDTH 160
ENDPROPERTIES
CHARS 269
STARTCHAR space
ENCODING 32
SWIDTH 602 0
DWIDTH 16 0
BBX 1 1 0 0
BITMAP
00
ENDCHAR
STARTCHAR exclam
ENCODING 33
SWIDTH 602 0
DWIDTH 16 0
BBX 3 19 7 0
BITMAP
E0
E0
E0
E0
E0
E0
E0
E0
E0
E0
E0
E0
E0
00
00
00
E0
E0
E0
ENDCHAR
STARTCHAR quotedbl
ENCODING 34
SWIDTH 602 0
DWIDTH 16 0
BBX 7 7 5 12
BITMAP
C6
C6
C6
C6
C6
C6
C6
ENDCHAR
STARTCHAR numbersign
ENCODING 35
SWIDTH 602 0
DWIDTH 16 0
BBX 16 18 0 0
BITMAP
018C
030C
031C
0318
0318
7FFF
7FFF
0630
0630
0C30
0C60
FFFE
FFFE
1860
18C0
18C0
38C0
31C0
ENDCHAR
STARTCHAR dollar
ENCODING 36
SWIDTH 602 0
DWIDTH 16 0
BBX 11 24 3 -4
BITMAP
0400
0400
0400
1F80
7FC0
F440
E400
E400
E400
F400
7C00
3F80
0FC0
05E0
04E0
04E0
04E0
85C0
FFC0
7F00
0400
0400
0400
0400
ENDCHAR
STARTCHAR percent
ENCODING 37
SWIDTH 602 0
DWIDTH 16 0
BBX 15 19 0 0
BITMAP
3C00
7E00
E700
C300
C300
E700
7E0C
3C38
00E0
0380
0E00
3878
60FC
01CE
0186
0186
01CE
00FC
0078
ENDCHAR
STARTCHAR ampersand
ENCODING 38
SWIDTH 602 0
DWIDTH 16 0
BBX 15 19 1 0
BITMAP
0F80
1FC0
3C40
3800
3800
3800
1C00
1E00
3E00
7F06
6786
E3C6
E1C6
E1EC
E0FC
F078
787C
3FDC
1F9E
ENDCHAR
STARTCHAR quotesingle
ENCODING 39
SWIDTH 602 0
DWIDTH 16 0
BBX 2 7 7 12
BITMAP
C0
C0
C0
C0
C0
C0
C0
ENDCHAR
STARTCHAR parenleft
ENCODING 40
SWIDTH 602 0
DWIDTH 16 0
BBX 6 23 5 -3
BITMAP
0C
18
18
30
30
70
70
E0
E0
E0
E0
E0
E0
E0
E0
E0
70
70
30
30
18
18
0C
ENDCHAR
STARTCHAR parenright
ENCODING 41
SWIDTH 602 0
DWIDTH 16 0
BBX 6 23 5 -3
BITMAP
C0
60
60
30
30
38
38
18
1C
1C
1C
1C
1C
1C
1C
18
38
38
30
30
60
60
C0
ENDCHAR
STARTCHAR asterisk
ENCODING 42
SWIDTH 602 0
DWIDTH 16 0
BBX 11 12 2 7
BITMAP
0400
0400
C460
E4E0
3F80
0E00
0E00
3F80
E4E0
C460
0400
0400
ENDCHAR
STARTCHAR plus
ENCODING 43
SWIDTH 602 0
DWIDTH 16 0
BBX 14 14 1 1
BITMAP
0300
0300
0300
0300
0300
0300
FFFC
FFFC
0300
0300
0300
0300
0300
0300
ENDCHAR
STARTCHAR comma
ENCODING 44
SWIDTH 602 0
DWIDTH 16 0
BBX 4 7 5 -3
BITMAP
70
70
70
70
60
E0
C0
ENDCHAR
STARTCHAR hyphen
ENCODING 45
SWIDTH 602 0
DWIDTH 16 0
BBX 7 2 5 6
BITMAP
FE
FE
ENDCHAR
STARTCHAR period
ENCODING 46
SWIDTH 602 0
DWIDTH 16 0
BBX 3 4 6 0
BITMAP
E0
E0
E0
E0
ENDCHAR
STARTCHAR slash
ENCODING 47
SWIDTH 602 0
DWIDTH 16 0
BBX 13 21 1 -2
BITMAP
0038
0070
0070
00E0
00E0
01C0
01C0
0380
0380
0700
0700
0700
0E00
0E00
1C00
1C00
3800
3800
7000
7000
E000
ENDCHAR
STARTCHAR zero
ENCODING 48
SWIDTH 602 0
DWIDTH 16 0
BBX 12 19 2 0
BITMAP
0F00
3FC0
79E0
70E0
70E0
E070
E070
E070
EE70
EE70
EE70
E070
E070
E070
70E0
70E0
79E0
3FC0
0F00
ENDCHAR
STARTCHAR one
ENCODING 49
SWIDTH 602 0
DWIDTH 16 0
BBX 11 19 3 0
BITMAP
3E00
FE00
CE00
0E00
0E00
0E00
0E00
0E00
0E00
0E00
0E00
0E00
0E00
0E00
0E00
0E00
0E00
FFE0
FFE0
ENDCHAR
STARTCHAR two
ENCODING 50
SWIDTH 602 0
DWIDTH 16 0
BBX 12 19 2 0
BITMAP
3F00
FFC0
E1E0
80F0
0070
0070
0070
00F0
00F0
01E0
03C0
0780
0F00
1E00
3C00
7800
E000
FFF0
FFF0
ENDCHAR
STARTCHAR three
ENCODING 51
SWIDTH 602 0
DWIDTH 16 0
BBX 12 19 2 0
BITMAP
1F80
7FC0
40E0
0070
0070
0070
0070
01E0
1FC0
1F80
01E0
00F0
0070
0070
0070
00F0
81E0
FFC0
3F00
ENDCHAR
STARTCHAR four
ENCODING 52
SWIDTH 602 0
DWIDTH 16 0
BBX 13 19 1 0
BITMAP
01C0
03C0
03C0
07C0
0DC0
0DC0
19C0
19C0
31C0
61C0
61C0
C1C0
FFF8
FFF8
01C0
01C0
01C0
01C0
01C0
ENDCHAR
STARTCHAR five
ENCODING 53
SWIDTH 602 0
DWIDTH 16 0
BBX 12 19 2 0
BITMAP
7FE0
7FE0
7000
7000
7000
7000
7F80
7FC0
41E0
00E0
0070
0070
0070
0070
0070
00E0
81E0
FFC0
7F00
ENDCHAR
STARTCHAR six
ENCODING 54
SWIDTH 602 0
DWIDTH 16 0
BBX 12 19 2 0
BITMAP
0FC0
1FE0
3C20
7000
7000
E000
E000
E780
EFE0
F0E0
F070
E070
E070
E070
6070
7070
70E0
3FC0
0F80
ENDCHAR
STARTCHAR seven
ENCODING 55
SWIDTH 602 0
DWIDTH 16 0
BBX 12 19 2 0
BITMAP
FFF0
FFF0
00E0
00E0
01E0
01C0
01C0
03C0
0380
0380
0700
0700
0F00
0E00
0E00
1E00
1C00
1C00
3800
ENDCHAR
STARTCHAR eight
ENCODING 56
SWIDTH 602 0
DWIDTH 16 0
BBX 12 19 2 0
BITMAP
1F80
7FE0
70E0
E070
E070
E070
E070
70E0
1F80
3FC0
70E0
E070
E070
E070
E070
E070
70E0
7FE0
1F80
ENDCHAR
STARTCHAR nine
ENCODING 57
SWIDTH 602 0
DWIDTH 16 0
BBX 12 19 2 0
BITMAP
1F00
3FC0
70E0
E0E0
E060
E070
E070
E070
E0F0
70F0
7F70
1E70
0070
00F0
00E0
00E0
43C0
7F80
3F00
ENDCHAR
STARTCHAR colon
ENCODING 58
SWIDTH 602 0
DWIDTH 16 0
BBX 3 13 6 0
BITMAP
E0
E0
E0
E0
00
00
00
00
00
E0
E0
E0
E0
ENDCHAR
STARTCHAR semicolon
ENCODING 59
SWIDTH 602 0
DWIDTH 16 0
BBX 4 16 5 -3
BITMAP
70
70
70
70
00
00
00
00
00
70
70
70
70
60
E0
C0
ENDCHAR
STARTCHAR less
ENCODING 60
SWIDTH 602 0
DWIDTH 16 0
BBX 13 13 1 2
BITMAP
0008
0078
01F8
07C0
3F00
F800
E000
F800
3F00
07C0
01F8
0078
0008
ENDCHAR
STARTCHAR equal
ENCODING 61
SWIDTH 602 0
DWIDTH 16 0
BBX 13 7 1 5
BITMAP
FFF8
FFF8
0000
0000
0000
FFF8
FFF8
ENDCHAR
STARTCHAR greater
ENCODING 62
SWIDTH 602 0
DWIDTH 16 0
BBX 13 13 1 2
BITMAP
8000
F000
FC00
1F00
07E0
00F8
0038
00F8
07E0
1F00
FC00
F000
8000
ENDCHAR
STARTCHAR question
ENCODING 63
SWIDTH 602 0
DWIDTH 16 0
BBX 10 19 3 0
BITMAP
3E00
7F80
C3C0
81C0
01C0
03C0
0780
0F00
0E00
1E00
1C00
1C00
1C00
1C00
0000
0000
1C00
1C00
1C00
ENDCHAR
STARTCHAR at
ENCODING 64
SWIDTH 602 0
DWIDTH 16 0
BBX 15 22 1 -4
BITMAP
03F0
0FF8
1C1C
380C
7006
6006
60F6
C3FE
C30E
C606
C606
C606
C606
C30E
C3FE
60F6
6000
3000
3800
1E08
0FF8
03F8
ENDCHAR
STARTCHAR A
ENCODING 65
SWIDTH 602 0
DWIDTH 16 0
BBX 15 19 1 0
BITMAP
0380
07C0
07C0
07C0
07C0
0EE0
0EE0
0EE0
1C70
1C70
1C70
3838
3FF8
3FF8
783C
701C
701C
F01E
E00E
ENDCHAR
STARTCHAR B
ENCODING 66
SWIDTH 602 0
DWIDTH 16 0
BBX 12 19 1 0
BITMAP
FF00
FFC0
E1C0
E0E0
E0E0
E0E0
E0E0
E1C0
FF80
FF80
E0E0
E060
E070
E070
E070
E070
E0E0
FFE0
FF80
ENDCHAR
STARTCHAR C
ENCODING 67
SWIDTH 602 0
DWIDTH 16 0
BBX 12 19 1 0
BITMAP
07E0
1FF0
3C30
7810
7000
E000
E000
E000
E000
E000
E000
E000
E000
E000
7000
7010
3C30
1FF0
07E0
ENDCHAR
STARTCHAR D
ENCODING 68
SWIDTH 602 0
DWIDTH 16 0
BBX 12 19 1 0
BITMAP
FE00
FF80
E1C0
E0E0
E0E0
E070
E070
E070
E070
E070
E070
E070
E070
E070
E0E0
E0E0
E1C0
FF80
FE00
ENDCHAR
STARTCHAR E
ENCODING 69
SWIDTH 602 0
DWIDTH 16 0
BBX 12 19 1 0
BITMAP
FFF0
FFF0
E000
E000
E000
E000
E000
E000
FFE0
FFE0
E000
E000
E000
E000
E000
E000
E000
FFF0
FFF0
ENDCHAR
STARTCHAR F
ENCODING 70
SWIDTH 602 0
DWIDTH 16 0
BBX 12 19 1 0
BITMAP
FFF0
FFF0
E000
E000
E000
E000
E000
E000
FFE0
FFE0
E000
E000
E000
E000
E000
E000
E000
E000
E000
ENDCHAR
STARTCHAR G
ENCODING 71
SWIDTH 602 0
DWIDTH 16 0
BBX 13 19 1 0
BITMAP
07E0
1FF0
3C30
7010
7000
E000
E000
E000
E000
E1F8
E1F8
E038
E038
E038
7038
7038
3838
1FF8
07E0
ENDCHAR
STARTCHAR H
ENCODING 72
SWIDTH 602 0
DWIDTH 16 0
BBX 12 19 1 0
BITMAP
E070
E070
E070
E070
E070
E070
E070
E070
FFF0
FFF0
E070
E070
E070
E070
E070
E070
E070
E070
E070
ENDCHAR
STARTCHAR I
ENCODING 73
SWIDTH 602 0
DWIDTH 16 0
BBX 11 19 3 0
BITMAP
FFE0
FFE0
0E00
0E00
0E00
0E00
0E00
0E00
0E00
0E00
0E00
0E00
0E00
0E00
0E00
0E00
0E00
FFE0
FFE0
ENDCHAR
STARTCHAR J
ENCODING 74
SWIDTH 602 0
DWIDTH 16 0
BBX 11 19 1 0
BITMAP
1FE0
1FE0
00E0
00E0
00E0
00E0
00E0
00E0
00E0
00E0
00E0
00E0
00E0
00E0
00E0
80E0
C1C0
FFC0
3F00
ENDCHAR
STARTCHAR K
ENCODING 75
SWIDTH 602 0
DWIDTH 16 0
BBX 14 19 1 0
BITMAP
E01C
E038
E070
E0E0
E1C0
E380
E700
EE00
FE00
FF00
F780
E380
E3C0
E1E0
E0E0
E0F0
E078
E038
E03C
ENDCHAR
STARTCHAR L
ENCODING 76
SWIDTH 602 0
DWIDTH 16 0
BBX 12 19 1 0
BITMAP
E000
E000
E000
E000
E000
E000
E000
E000
E000
E000
E000
E000
E000
E000
E000
E000
E000
FFF0
FFF0
ENDCHAR
STARTCHAR M
ENCODING 77
SWIDTH 602 0
DWIDTH 16 0
BBX 13 19 1 0
BITMAP
F078
F078
F8F8
F8F8
F8F8
E8B8
EDB8
EDB8
E538
E738
E738
E738
E038
E038
E038
E038
E038
E038
E038
ENDCHAR
STARTCHAR N
ENCODING 78
SWIDTH 602 0
DWIDTH 16 0
BBX 12 19 1 0
BITMAP
F070
F070
F870
F870
F870
EC70
EC70
EC70
E670
E670
E670
E370
E370
E370
E1F0
E1F0
E1F0
E0F0
E0F0
ENDCHAR
STARTCHAR O
ENCODING 79
SWIDTH 602 0
DWIDTH 16 0
BBX 13 19 1 0
BITMAP
0F80
3FE0
38E0
7070
7070
E038
E038
E038
E038
E038
E038
E038
E038
E038
7070
7070
78E0
3FE0
0F80
ENDCHAR
STARTCHAR P
ENCODING 80
SWIDTH 602 0
DWIDTH 16 0
BBX 12 19 1 0
BITMAP
FF80
FFC0
E0E0
E070
E070
E070
E070
E070
E0E0
FFE0
FF80
E000
E000
E000
E000
E000
E000
E000
E000
ENDCHAR
STARTCHAR Q
ENCODING 81
SWIDTH 602 0
DWIDTH 16 0
BBX 13 22 1 -3
BITMAP
0F80
3FE0
38E0
7070
7070
E038
E038
E038
E038
E038
E038
E038
E038
E038
7070
7070
78E0
3FE0
0F80
01C0
00F0
0060
ENDCHAR
STARTCHAR R
ENCODING 82
SWIDTH 602 0
DWIDTH 16 0
BBX 14 19 1 0
BITMAP
FF80
FFC0
E0E0
E070
E070
E070
E070
E070
E0E0
FFC0
FF80
E3C0
E1E0
E0E0
E0F0
E070
E078
E038
E03C
ENDCHAR
STARTCHAR S
ENCODING 83
SWIDTH 602 0
DWIDTH 16 0
BBX 12 19 1 0
BITMAP
1FC0
3FE0
7860
E020
E000
E000
F000
FC00
7F80
3FE0
03E0
00F0
0070
0070
0070
8070
E1E0
FFC0
3F80
ENDCHAR
STARTCHAR T
ENCODING 84
SWIDTH 602 0
DWIDTH 16 0
BBX 15 19 1 0
BITMAP
FFFE
FFFE
0380
0380
0380
0380
0380
0380
0380
0380
0380
0380
0380
0380
0380
0380
0380
0380
0380
ENDCHAR
STARTCHAR U
ENCODING 85
SWIDTH 602 0
DWIDTH 16 0
BBX 12 19 1 0
BITMAP
E070
E070
E070
E070
E070
E070
E070
E070
E070
E070
E070
E070
E070
E070
E070
E070
70E0
3FC0
1F80
ENDCHAR
STARTCHAR V
ENCODING 86
SWIDTH 602 0
DWIDTH 16 0
BBX 14 19 1 0
BITMAP
E01C
F03C
7038
7038
7038
3870
3870
3870
3CF0
1CE0
1CE0
1CE0
0FC0
0FC0
0FC0
0FC0
0780
0780
0780
ENDCHAR
STARTCHAR W
ENCODING 87
SWIDTH 602 0
DWIDTH 16 0
BBX 16 19 0 0
BITMAP
E007
E007
E007
700E
700E
718E
73CE
73CE
73CE
73CE
3E5C
3E7C
3E7C
3E7C
3C3C
3C3C
1C3C
1C38
1C18
ENDCHAR
STARTCHAR X
ENCODING 88
SWIDTH 602 0
DWIDTH 16 0
BBX 15 19 1 0
BITMAP
F01E
783C
3838
3C78
1EF0
0EE0
0FE0
07C0
0380
0380
07C0
0FC0
0EE0
1EF0
1C70
3C78
7838
701C
F01E
ENDCHAR
STARTCHAR Y
ENCODING 89
SWIDTH 602 0
DWIDTH 16 0
BBX 15 19 1 0
BITMAP
F01E
701C
783C
3838
1C70
1EF0
0EE0
0FE0
07C0
07C0
0380
0380
0380
0380
0380
0380
0380
0380
0380
ENDCHAR
STARTCHAR Z
ENCODING 90
SWIDTH 602 0
DWIDTH 16 0
BBX 13 19 1 0
BITMAP
FFF8
FFF8
0078
00F0
00E0
01E0
01C0
03C0
0780
0700
0F00
1E00
1C00
3C00
3800
7800
F000
FFF8
FFF8
ENDCHAR
STARTCHAR bracketleft
ENCODING 91
SWIDTH 602 0
DWIDTH 16 0
BBX 6 23 6 -3
BITMAP
FC
FC
E0
E0
E0
E0
E0
E0
E0
E0
E0
E0
E0
E0
E0
E0
E0
E0
E0
E0
E0
FC
FC
ENDCHAR
STARTCHAR backslash
ENCODING 92
SWIDTH 602 0
DWIDTH 16 0
BBX 13 21 1 -2
BITMAP
E000
7000
7000
3800
3800
1C00
1C00
0E00
0E00
0700
0700
0700
0380
0380
01C0
01C0
00E0
00E0
0070
0070
0038
ENDCHAR
STARTCHAR bracketright
ENCODING 93
SWIDTH 602 0
DWIDTH 16 0
BBX 6 23 4 -3
BITMAP
FC
FC
1C
1C
1C
1C
1C
1C
1C
1C
1C
1C
1C
1C
1C
1C
1C
1C
1C
1C
1C
FC
FC
ENDCHAR
STARTCHAR asciicircum
ENCODING 94
SWIDTH 602 0
DWIDTH 16 0
BBX 14 7 1 12
BITMAP
0780
0780
0FC0
1CE0
3870
7038
E01C
ENDCHAR
STARTCHAR underscore
ENCODING 95
SWIDTH 602 0
DWIDTH 16 0
BBX 13 2 0 -6
BITMAP
FFF8
FFF8
ENDCHAR
STARTCHAR grave
ENCODING 96
SWIDTH 602 0
DWIDTH 16 0
BBX 6 5 4 16
BITMAP
E0
70
30
18
0C
ENDCHAR
STARTCHAR a
ENCODING 97
SWIDTH 602 0
DWIDTH 16 0
BBX 12 14 2 0
BITMAP
1F80
7FE0
40E0
0070
0070
1FF0
7FF0
F070
E070
E070
E0F0
F1F0
7F70
3E70
ENDCHAR
STARTCHAR b
ENCODING 98
SWIDTH 602 0
DWIDTH 16 0
BBX 12 20 2 0
BITMAP
E000
E000
E000
E000
E000
E000
E780
FFC0
F0E0
F0E0
E070
E070
E070
E070
E070
E070
F0E0
F0E0
FFC0
E780
ENDCHAR
STARTCHAR c
ENCODING 99
SWIDTH 602 0
DWIDTH 16 0
BBX 11 14 2 0
BITMAP
0F80
3FC0
7860
7000
E000
E000
E000
E000
E000
E000
7000
7860
3FC0
0F80
ENDCHAR
STARTCHAR d
ENCODING 100
SWIDTH 602 0
DWIDTH 16 0
BBX 12 20 2 0
BITMAP
0070
0070
0070
0070
0070
0070
1E70
3FF0
71F0
F0F0
E070
E070
E070
E070
E070
E070
70F0
71F0
3FF0
1E70
ENDCHAR
STARTCHAR e
ENCODING 101
SWIDTH 602 0
DWIDTH 16 0
BBX 13 14 2 0
BITMAP
0FC0
3FE0
78F0
7070
E038
E038
FFF8
FFF8
E000
E000
7000
7830
3FF0
0FC0
ENDCHAR
STARTCHAR f
ENCODING 102
SWIDTH 602 0
DWIDTH 16 0
BBX 12 20 2 0
BITMAP
03F0
07F0
0F00
0E00
0E00
0E00
FFF0
FFF0
0E00
0E00
0E00
0E00
0E00
0E00
0E00
0E00
0E00
0E00
0E00
0E00
ENDCHAR
STARTCHAR g
ENCODING 103
SWIDTH 602 0
DWIDTH 16 0
BBX 12 19 2 -5
BITMAP
1E70
3FF0
78F0
70F0
E070
E070
E070
E070
E070
E070
70F0
78F0
3F70
1E70
0070
0070
20E0
3FC0
1F80
ENDCHAR
STARTCHAR h
ENCODING 104
SWIDTH 602 0
DWIDTH 16 0
BBX 11 20 2 0
BITMAP
E000
E000
E000
E000
E000
E000
E780
EFC0
F1E0
E0E0
E0E0
E0E0
E0E0
E0E0
E0E0
E0E0
E0E0
E0E0
E0E0
E0E0
ENDCHAR
STARTCHAR i
ENCODING 105
SWIDTH 602 0
DWIDTH 16 0
BBX 13 20 2 0
BITMAP
0700
0700
0700
0000
0000
0000
7F00
7F00
0700
0700
0700
0700
0700
0700
0700
0700
0700
0700
FFF8
FFF8
ENDCHAR
STARTCHAR j
ENCODING 106
SWIDTH 602 0
DWIDTH 16 0
BBX 8 25 3 -5
BITMAP
07
07
07
00
00
00
7F
7F
07
07
07
07
07
07
07
07
07
07
07
07
07
07
0F
FE
F8
ENDCHAR
STARTCHAR k
ENCODING 107
SWIDTH 602 0
DWIDTH 16 0
BBX 12 20 3 0
BITMAP
E000
E000
E000
E000
E000
E000
E0F0
E1E0
E3C0
E780
EF00
FE00
FE00
FF00
FF00
F780
E3C0
E1C0
E1E0
E0F0
ENDCHAR
STARTCHAR l
ENCODING 108
SWIDTH 602 0
DWIDTH 16 0
BBX 13 20 1 0
BITMAP
FF00
FF00
0700
0700
0700
0700
0700
0700
0700
0700
0700
0700
0700
0700
0700
0700
0700
0780
03F8
01F8
ENDCHAR
STARTCHAR m
ENCODING 109
SWIDTH 602 0
DWIDTH 16 0
BBX 13 14 1 0
BITMAP
EEF0
FEF0
E738
E738
E738
E738
E738
E738
E738
E738
E738
E738
E738
E738
ENDCHAR
STARTCHAR n
ENCODING 110
SWIDTH 602 0
DWIDTH 16 0
BBX 11 14 2 0
BITMAP
E780
EFC0
F1E0
E0E0
E0E0
E0E0
E0E0
E0E0
E0E0
E0E0
E0E0
E0E0
E0E0
E0E0
ENDCHAR
STARTCHAR o
ENCODING 111
SWIDTH 602 0
DWIDTH 16 0
BBX 12 14 2 0
BITMAP
1F80
3FC0
70E0
70E0
E070
E070
E070
E070
E070
E070
70E0
70E0
3FC0
1F80
ENDCHAR
STARTCHAR p
ENCODING 112
SWIDTH 602 0
DWIDTH 16 0
BBX 12 19 2 -5
BITMAP
E780
FFC0
F0E0
F0E0
E070
E070
E070
E070
E070
E070
F0E0
F0E0
FFC0
E780
E000
E000
E000
E000
E000
ENDCHAR
STARTCHAR q
ENCODING 113
SWIDTH 602 0
DWIDTH 16 0
BBX 12 19 2 -5
BITMAP
1E70
3FF0
70F0
70F0
E070
E070
E070
E070
E070
E070
70F0
70F0
3FF0
1E70
0070
0070
0070
0070
0070
ENDCHAR
STARTCHAR r
ENCODING 114
SWIDTH 602 0
DWIDTH 16 0
BBX 10 14 5 0
BITMAP
E780
EFC0
F840
F000
E000
E000
E000
E000
E000
E000
E000
E000
E000
E000
ENDCHAR
STARTCHAR s
ENCODING 115
SWIDTH 602 0
DWIDTH 16 0
BBX 10 14 3 0
BITMAP
3F00
7F80
F080
E000
F000
FE00
7F80
1FC0
03C0
01C0
01C0
83C0
FF80
7F00
ENDCHAR
STARTCHAR t
ENCODING 116
SWIDTH 602 0
DWIDTH 16 0
BBX 12 18 1 0
BITMAP
0E00
0E00
0E00
0E00
FFF0
FFF0
0E00
0E00
0E00
0E00
0E00
0E00
0E00
0E00
0E00
0F00
07F0
03F0
ENDCHAR
STARTCHAR u
ENCODING 117
SWIDTH 602 0
DWIDTH 16 0
BBX 11 14 2 0
BITMAP
E0E0
E0E0
E0E0
E0E0
E0E0
E0E0
E0E0
E0E0
E0E0
E0E0
E1E0
F1E0
7EE0
3CE0
ENDCHAR
STARTCHAR v
ENCODING 118
SWIDTH 602 0
DWIDTH 16 0
BBX 13 14 1 0
BITMAP
E038
7070
7070
7070
38E0
38E0
3DE0
1DC0
1DC0
1FC0
0F80
0F80
0F80
0700
ENDCHAR
STARTCHAR w
ENCODING 119
SWIDTH 602 0
DWIDTH 16 0
BBX 16 14 0 0
BITMAP
E007
E007
700E
700E
718E
718E
3BDC
3BDC
3A5C
3E7C
1E78
1C38
1C38
1C38
ENDCHAR
STARTCHAR x
ENCODING 120
SWIDTH 602 0
DWIDTH 16 0
BBX 14 14 1 0
BITMAP
7878
3CF0
1CE0
1FE0
0FC0
0780
0300
0780
0FC0
0FC0
1FE0
3CF0
7878
F03C
ENDCHAR
STARTCHAR y
ENCODING 121
SWIDTH 602 0
DWIDTH 16 0
BBX 13 19 1 -5
BITMAP
E038
7070
7070
78F0
38E0
38E0
1DC0
1DC0
1FC0
0F80
0F80
0700
0700
0700
0E00
0E00
1E00
7C00
7800
ENDCHAR
STARTCHAR z
ENCODING 122
SWIDTH 602 0
DWIDTH 16 0
BBX 11 14 3 0
BITMAP
FFE0
FFE0
01E0
03C0
0780
0700
0F00
1E00
3C00
3800
7800
F000
FFE0
FFE0
ENDCHAR
STARTCHAR braceleft
ENCODING 123
SWIDTH 602 0
DWIDTH 16 0
BBX 11 24 3 -4
BITMAP
03E0
07E0
0F00
0E00
0E00
0E00
0E00
0E00
0E00
0E00
1C00
F800
F800
1C00
0E00
0E00
0E00
0E00
0E00
0E00
0E00
0F00
07E0
03E0
ENDCHAR
STARTCHAR bar
ENCODING 124
SWIDTH 602 0
DWIDTH 16 0
BBX 2 26 7 -6
BITMAP
C0
C0
C0
C0
C0
C0
C0
C0
C0
C0
C0
C0
C0
C0
C0
C0
C0
C0
C0
C0
C0
C0
C0
C0
C0
C0
ENDCHAR
STARTCHAR braceright
ENCODING 125
SWIDTH 602 0
DWIDTH 16 0
BBX 11 24 3 -4
BITMAP
F800
FC00
1E00
0E00
0E00
0E00
0E00
0E00
0E00
0E00
0700
03E0
03E0
0700
0E00
0E00
0E00
0E00
0E00
0E00
0E00
1E00
FC00
F800
ENDCHAR
STARTCHAR asciitilde
ENCODING 126
SWIDTH 602 0
DWIDTH 16 0
BBX 13 4 1 6
BITMAP
3C00
FF18
C3F8
01E0
ENDCHAR
STARTCHAR nonbreakingspace
ENCODING 160
SWIDTH 602 0
DWIDTH 16 0
BBX 1 1 0 0
BITMAP
00
ENDCHAR
STARTCHAR exclamdown
ENCODING 161
SWIDTH 602 0
DWIDTH 16 0
BBX 3 19 7 0
BITMAP
E0
E0
E0
00
00
00
E0
E0
E0
E0
E0
E0
E0
E0
E0
E0
E0
E0
E0
ENDCHAR
STARTCHAR cent
ENCODING 162
SWIDTH 602 0
DWIDTH 16 0
BBX 11 22 3 -4
BITMAP
0100
0100
0100
0100
07C0
1FE0
3920
7100
E100
E100
E100
E100
E100
F100
7100
3920
1FE0
07C0
0100
0100
0100
0100
ENDCHAR
STARTCHAR sterling
ENCODING 163
SWIDTH 602 0
DWIDTH 16 0
BBX 13 19 2 0
BITMAP
03F0
07F8
0F08
1E00
1C00
1C00
1C00
1C00
1C00
FFE0
FFE0
1C00
1C00
1C00
1C00
1C00
1C00
FFF8
FFF8
ENDCHAR
STARTCHAR currency
ENCODING 164
SWIDTH 602 0
DWIDTH 16 0
BBX 11 11 3 2
BITMAP
C020
EEE0
7FC0
3180
60C0
60C0
60C0
3180
7FC0
6EE0
C060
ENDCHAR
STARTCHAR yen
ENCODING 165
SWIDTH 602 0
DWIDTH 16 0
BBX 15 19 1 0
BITMAP
F01E
701C
783C
3838
1C70
1EF0
0EE0
7FFC
7FFC
07C0
0380
7FFC
7FFC
0380
0380
0380
0380
0380
0380
ENDCHAR
STARTCHAR brokenbar
ENCODING 166
SWIDTH 602 0
DWIDTH 16 0
BBX 2 23 7 -4
BITMAP
C0
C0
C0
C0
C0
C0
C0
C0
C0
C0
00
00
00
C0
C0
C0
C0
C0
C0
C0
C0
C0
C0
ENDCHAR
STARTCHAR section
ENCODING 167
SWIDTH 602 0
DWIDTH 16 0
BBX 11 21 3 -2
BITMAP
1F80
3FC0
7040
6000
6000
7800
3E00
6F00
C3C0
C0E0
C060
7060
7860
1FC0
0780
01C0
00C0
00C0
41C0
7F80
3F00
ENDCHAR
STARTCHAR dieresis
ENCODING 168
SWIDTH 602 0
DWIDTH 16 0
BBX 8 3 4 17
BITMAP
E7
E7
E7
ENDCHAR
STARTCHAR copyright
ENCODING 169
SWIDTH 602 0
DWIDTH 16 0
BBX 16 16 0 1
BITMAP
07E0
1818
300C
63E6
4E12
8C01
9801
9801
9801
9801
8C01
4E12
63E6
300C
1818
07E0
ENDCHAR
STARTCHAR ordfeminine
ENCODING 170
SWIDTH 602 0
DWIDTH 16 0
BBX 9 12 3 7
BITMAP
3E00
4300
0180
3F80
6180
C180
C180
C380
E780
7D80
0000
FF80
ENDCHAR
STARTCHAR guillemotleft
ENCODING 171
SWIDTH 602 0
DWIDTH 16 0
BBX 12 12 2 1
BITMAP
0410
0C30
1C70
38E0
71C0
E380
E380
71C0
38E0
1C70
0C30
0410
ENDCHAR
STARTCHAR logicalnot
ENCODING 172
SWIDTH 602 0
DWIDTH 16 0
BBX 13 6 1 5
BITMAP
FFF8
FFF8
0018
0018
0018
0018
ENDCHAR
STARTCHAR sfthyphen
ENCODING 173
SWIDTH 602 0
DWIDTH 16 0
BBX 7 2 5 6
BITMAP
FE
FE
ENDCHAR
STARTCHAR registered
ENCODING 174
SWIDTH 602 0
DWIDTH 16 0
BBX 16 16 0 1
BITMAP
07E0
1818
300C
6FE6
4C32
8C31
8C31
8FE1
8CC1
8C61
8C71
4C32
6C3E
300C
1818
07E0
ENDCHAR
STARTCHAR macron
ENCODING 175
SWIDTH 602 0
DWIDTH 16 0
BBX 8 2 4 17
BITMAP
FF
FF
ENDCHAR
STARTCHAR degree
ENCODING 176
SWIDTH 602 0
DWIDTH 16 0
BBX 8 8 4 11
BITMAP
3C
7E
E7
C3
C3
E7
7E
3C
ENDCHAR
STARTCHAR plusminus
ENCODING 177
SWIDTH 602 0
DWIDTH 16 0
BBX 14 15 1 0
BITMAP
0300
0300
0300
0300
FFFC
FFFC
0300
0300
0300
0300
0000
0000
0000
FFFC
FFFC
ENDCHAR
STARTCHAR twosuperior
ENCODING 178
SWIDTH 602 0
DWIDTH 16 0
BBX 7 11 4 8
BITMAP
78
8C
06
06
06
0E
1C
38
70
E0
FE
ENDCHAR
STARTCHAR threesuperior
ENCODING 179
SWIDTH 602 0
DWIDTH 16 0
BBX 8 11 4 8
BITMAP
7C
87
03
07
3C
06
03
03
03
86
7C
ENDCHAR
STARTCHAR acute
ENCODING 180
SWIDTH 602 0
DWIDTH 16 0
BBX 6 5 6 16
BITMAP
1C
38
30
60
C0
ENDCHAR
STARTCHAR mu
ENCODING 181
SWIDTH 602 0
DWIDTH 16 0
BBX 13 19 2 -5
BITMAP
E0E0
E0E0
E0E0
E0E0
E0E0
E0E0
E0E0
E0E0
E0E0
E0E0
E0E0
F1E0
FF78
EE78
E000
E000
E000
E000
E000
ENDCHAR
STARTCHAR paragraph
ENCODING 182
SWIDTH 602 0
DWIDTH 16 0
BBX 12 22 1 -3
BITMAP
1FF0
3FF0
7F30
FF30
FF30
FF30
FF30
FF30
7F30
3F30
1F30
0330
0330
0330
0330
0330
0330
0330
0330
0330
0330
0330
ENDCHAR
STARTCHAR periodcentered
ENCODING 183
SWIDTH 602 0
DWIDTH 16 0
BBX 3 4 6 7
BITMAP
E0
E0
E0
E0
ENDCHAR
STARTCHAR cedilla
ENCODING 184
SWIDTH 602 0
DWIDTH 16 0
BBX 5 5 5 -5
BITMAP
30
18
18
F8
F0
ENDCHAR
STARTCHAR onesuperior
ENCODING 185
SWIDTH 602 0
DWIDTH 16 0
BBX 8 11 4 8
BITMAP
38
D8
18
18
18
18
18
18
18
18
FF
ENDCHAR
STARTCHAR ordmasculine
ENCODING 186
SWIDTH 602 0
DWIDTH 16 0
BBX 9 12 3 7
BITMAP
3E00
6300
C180
C180
C180
C180
C180
C180
6300
3E00
0000
FF80
ENDCHAR
STARTCHAR guillemotright
ENCODING 187
SWIDTH 602 0
DWIDTH 16 0
BBX 12 12 2 1
BITMAP
8200
C300
E380
71C0
38E0
1C70
1C70
38E0
71C0
E380
C300
8200
ENDCHAR
STARTCHAR onequarter
ENCODING 188
SWIDTH 602 0
DWIDTH 16 0
BBX 14 25 0 -4
BITMAP
1C00
6C00
0C00
0C00
0C00
0C00
0C00
0C00
0C00
0C00
7F9C
01F0
3E00
E000
0070
0070
00F0
00B0
0130
0330
0230
0630
07F8
0030
0030
ENDCHAR
STARTCHAR onehalf
ENCODING 189
SWIDTH 602 0
DWIDTH 16 0
BBX 14 25 0 -4
BITMAP
1C00
6C00
0C00
0C00
0C00
0C00
0C00
0C00
0C00
0C00
7F9C
01F0
3E00
E000
00F0
0118
000C
000C
000C
001C
0038
0070
00E0
01C0
01FC
ENDCHAR
STARTCHAR threequarters
ENCODING 190
SWIDTH 602 0
DWIDTH 16 0
BBX 14 25 0 -4
BITMAP
3E00
4380
0180
0380
1E00
0300
0180
0180
0180
4300
3E1C
01F0
3E00
E000
0070
0070
00F0
00B0
0130
0330
0230
0630
07F8
0030
0030
ENDCHAR
STARTCHAR questiondown
ENCODING 191
SWIDTH 602 0
DWIDTH 16 0
BBX 10 19 3 0
BITMAP
0E00
0E00
0E00
0000
0000
0E00
0E00
0E00
0E00
1E00
1C00
7C00
7800
F000
E000
E040
E0C0
7F80
3F00
ENDCHAR
STARTCHAR Agrave
ENCODING 192
SWIDTH 602 0
DWIDTH 16 0
BBX 15 24 1 0
BITMAP
0E00
0700
0380
0000
0000
0380
07C0
07C0
07C0
07C0
0EE0
0EE0
0EE0
1C70
1C70
1C70
3838
3FF8
3FF8
783C
701C
701C
F01E
E00E
ENDCHAR
STARTCHAR Aacute
ENCODING 193
SWIDTH 602 0
DWIDTH 16 0
BBX 15 24 1 0
BITMAP
01C0
0380
0700
0000
0000
0380
07C0
07C0
07C0
07C0
0EE0
0EE0
0EE0
1C70
1C70
1C70
3838
3FF8
3FF8
783C
701C
701C
F01E
E00E
ENDCHAR
STARTCHAR Acircumflex
ENCODING 194
SWIDTH 602 0
DWIDTH 16 0
BBX 15 24 1 0
BITMAP
0780
0CC0
1860
0000
0000
0380
07C0
07C0
07C0
07C0
0EE0
0EE0
0EE0
1C70
1C70
1C70
3838
3FF8
3FF8
783C
701C
701C
F01E
E00E
ENDCHAR
STARTCHAR Atilde
ENCODING 195
SWIDTH 602 0
DWIDTH 16 0
BBX 15 24 1 0
BITMAP
0E60
1FE0
19C0
0000
0000
0380
07C0
07C0
07C0
07C0
0EE0
0EE0
0EE0
1C70
1C70
1C70
3838
3FF8
3FF8
783C
701C
701C
F01E
E00E
ENDCHAR
STARTCHAR Adieresis
ENCODING 196
SWIDTH 602 0
DWIDTH 16 0
BBX 15 24 1 0
BITMAP
1CE0
1CE0
1CE0
0000
0000
0380
07C0
07C0
07C0
07C0
0EE0
0EE0
0EE0
1C70
1C70
1C70
3838
3FF8
3FF8
783C
701C
701C
F01E
E00E
ENDCHAR
STARTCHAR Aring
ENCODING 197
SWIDTH 602 0
DWIDTH 16 0
BBX 15 24 1 0
BITMAP
0380
07C0
0C60
0C60
0C60
07C0
0380
07C0
07C0
07C0
0FE0
0EE0
0EE0
1EF0
1C70
1C70
3C78
3FF8
3FF8
783C
701C
701C
F01E
E00E
ENDCHAR
STARTCHAR AE
ENCODING 198
SWIDTH 602 0
DWIDTH 16 0
BBX 15 19 0 0
BITMAP
07FE
07FE
0FE0
0EE0
0EE0
0EE0
1EE0
1CE0
1CFC
1CFC
38E0
38E0
3FE0
7FE0
70E0
70E0
70E0
F0FE
E0FE
ENDCHAR
STARTCHAR Ccedilla
ENCODING 199
SWIDTH 602 0
DWIDTH 16 0
BBX 12 24 1 -5
BITMAP
07E0
1FF0
3C30
7810
7000
E000
E000
E000
E000
E000
E000
E000
E000
E000
7000
7010
3C30
1FF0
07E0
0180
00C0
00C0
07C0
0780
ENDCHAR
STARTCHAR Egrave
ENCODING 200
SWIDTH 602 0
DWIDTH 16 0
BBX 12 24 1 0
BITMAP
0E00
0700
0380
0000
0000
FFF0
FFF0
E000
E000
E000
E000
E000
E000
FFE0
FFE0
E000
E000
E000
E000
E000
E000
E000
FFF0
FFF0
ENDCHAR
STARTCHAR Eacute
ENCODING 201
SWIDTH 602 0
DWIDTH 16 0
BBX 12 24 1 0
BITMAP
01C0
0380
0700
0000
0000
FFF0
FFF0
E000
E000
E000
E000
E000
E000
FFE0
FFE0
E000
E000
E000
E000
E000
E000
E000
FFF0
FFF0
ENDCHAR
STARTCHAR Ecircumflex
ENCODING 202
SWIDTH 602 0
DWIDTH 16 0
BBX 12 24 1 0
BITMAP
0780
0CC0
1860
0000
0000
FFF0
FFF0
E000
E000
E000
E000
E000
E000
FFE0
FFE0
E000
E000
E000
E000
E000
E000
E000
FFF0
FFF0
ENDCHAR
STARTCHAR Edieresis
ENCODING 203
SWIDTH 602 0
DWIDTH 16 0
BBX 12 24 1 0
BITMAP
1CE0
1CE0
1CE0
0000
0000
FFF0
FFF0
E000
E000
E000
E000
E000
E000
FFE0
FFE0
E000
E000
E000
E000
E000
E000
E000
FFF0
FFF0
ENDCHAR
STARTCHAR Igrave
ENCODING 204
SWIDTH 602 0
DWIDTH 16 0
BBX 11 24 3 0
BITMAP
3800
1C00
0E00
0000
0000
FFE0
FFE0
0E00
0E00
0E00
0E00
0E00
0E00
0E00
0E00
0E00
0E00
0E00
0E00
0E00
0E00
0E00
FFE0
FFE0
ENDCHAR
STARTCHAR Iacute
ENCODING 205
SWIDTH 602 0
DWIDTH 16 0
BBX 11 24 3 0
BITMAP
0700
0E00
1C00
0000
0000
FFE0
FFE0
0E00
0E00
0E00
0E00
0E00
0E00
0E00
0E00
0E00
0E00
0E00
0E00
0E00
0E00
0E00
FFE0
FFE0
ENDCHAR
STARTCHAR Icircumflex
ENCODING 206
SWIDTH 602 0
DWIDTH 16 0
BBX 11 24 3 0
BITMAP
1E00
3300
6180
0000
0000
FFE0
FFE0
0E00
0E00
0E00
0E00
0E00
0E00
0E00
0E00
0E00
0E00
0E00
0E00
0E00
0E00
0E00
FFE0
FFE0
ENDCHAR
STARTCHAR Idieresis
ENCODING 207
SWIDTH 602 0
DWIDTH 16 0
BBX 11 24 3 0
BITMAP
7380
7380
7380
0000
0000
FFE0
FFE0
0E00
0E00
0E00
0E00
0E00
0E00
0E00
0E00
0E00
0E00
0E00
0E00
0E00
0E00
0E00
FFE0
FFE0
ENDCHAR
STARTCHAR Eth
ENCODING 208
SWIDTH 602 0
DWIDTH 16 0
BBX 13 19 0 0
BITMAP
7F00
7FC0
70E0
7070
7070
7038
7038
7038
FE38
FE38
7038
7038
7038
7038
7070
7070
70E0
7FC0
7F00
ENDCHAR
STARTCHAR Ntilde
ENCODING 209
SWIDTH 602 0
DWIDTH 16 0
BBX 12 24 1 0
BITMAP
0E60
1FE0
19C0
0000
0000
F070
F070
F870
F870
F870
EC70
EC70
EC70
E670
E670
E670
E370
E370
E370
E1F0
E1F0
E1F0
E0F0
E0F0
ENDCHAR
STARTCHAR Ograve
ENCODING 210
SWIDTH 602 0
DWIDTH 16 0
BBX 13 24 1 0
BITMAP
0E00
0700
0380
0000
0000
0F80
3FE0
38E0
7070
7070
E038
E038
E038
E038
E038
E038
E038
E038
E038
7070
7070
78E0
3FE0
0F80
ENDCHAR
STARTCHAR Oacute
ENCODING 211
SWIDTH 602 0
DWIDTH 16 0
BBX 13 24 1 0
BITMAP
01C0
0380
0700
0000
0000
0F80
3FE0
38E0
7070
7070
E038
E038
E038
E038
E038
E038
E038
E038
E038
7070
7070
78E0
3FE0
0F80
ENDCHAR
STARTCHAR Ocircumflex
ENCODING 212
SWIDTH 602 0
DWIDTH 16 0
BBX 13 24 1 0
BITMAP
0780
0CC0
1860
0000
0000
0F80
3FE0
38E0
7070
7070
E038
E038
E038
E038
E038
E038
E038
E038
E038
7070
7070
78E0
3FE0
0F80
ENDCHAR
STARTCHAR Otilde
ENCODING 213
SWIDTH 602 0
DWIDTH 16 0
BBX 13 24 1 0
BITMAP
0E60
1FE0
19C0
0000
0000
0F80
3FE0
38E0
7070
7070
E038
E038
E038
E038
E038
E038
E038
E038
E038
7070
7070
78E0
3FE0
0F80
ENDCHAR
STARTCHAR Odieresis
ENCODING 214
SWIDTH 602 0
DWIDTH 16 0
BBX 13 24 1 0
BITMAP
1CE0
1CE0
1CE0
0000
0000
0F80
3FE0
38E0
7070
7070
E038
E038
E038
E038
E038
E038
E038
E038
E038
7070
7070
78E0
3FE0
0F80
ENDCHAR
STARTCHAR multiply
ENCODING 215
SWIDTH 602 0
DWIDTH 16 0
BBX 12 12 2 2
BITMAP
4020
E070
70E0
39C0
1F80
0F00
0F00
1F80
39C0
70E0
E070
4020
ENDCHAR
STARTCHAR Oslash
ENCODING 216
SWIDTH 602 0
DWIDTH 16 0
BBX 15 19 0 0
BITMAP
07C6
1FEC
3C78
3838
3838
707C
705C
70DC
719C
731C
731C
761C
7C1C
7C1C
3838
3838
7C70
7FF0
C7C0
ENDCHAR
STARTCHAR Ugrave
ENCODING 217
SWIDTH 602 0
DWIDTH 16 0
BBX 12 24 1 0
BITMAP
0E00
0700
0380
0000
0000
E070
E070
E070
E070
E070
E070
E070
E070
E070
E070
E070
E070
E070
E070
E070
E070
70E0
3FC0
1F80
ENDCHAR
STARTCHAR Uacute
ENCODING 218
SWIDTH 602 0
DWIDTH 16 0
BBX 12 24 1 0
BITMAP
01C0
0380
0700
0000
0000
E070
E070
E070
E070
E070
E070
E070
E070
E070
E070
E070
E070
E070
E070
E070
E070
70E0
3FC0
1F80
ENDCHAR
STARTCHAR Ucircumflex
ENCODING 219
SWIDTH 602 0
DWIDTH 16 0
BBX 12 24 1 0
BITMAP
0780
0CC0
1860
0000
0000
E070
E070
E070
E070
E070
E070
E070
E070
E070
E070
E070
E070
E070
E070
E070
E070
70E0
3FC0
1F80
ENDCHAR
STARTCHAR Udieresis
ENCODING 220
SWIDTH 602 0
DWIDTH 16 0
BBX 12 24 1 0
BITMAP
1CE0
1CE0
1CE0
0000
0000
E070
E070
E070
E070
E070
E070
E070
E070
E070
E070
E070
E070
E070
E070
E070
E070
70E0
3FC0
1F80
ENDCHAR
STARTCHAR Yacute
ENCODING 221
SWIDTH 602 0
DWIDTH 16 0
BBX 15 24 1 0
BITMAP
01C0
0380
0700
0000
0000
F01E
701C
783C
3838
1C70
1EF0
0EE0
0FE0
07C0
07C0
0380
0380
0380
0380
0380
0380
0380
0380
0380
ENDCHAR
STARTCHAR Thorn
ENCODING 222
SWIDTH 602 0
DWIDTH 16 0
BBX 12 19 1 0
BITMAP
E000
E000
E000
FF80
FFE0
E0E0
E070
E070
E070
E070
E070
E0E0
FFE0
FF80
E000
E000
E000
E000
E000
ENDCHAR
STARTCHAR germandbls
ENCODING 223
SWIDTH 602 0
DWIDTH 16 0
BBX 12 20 2 0
BITMAP
3F00
7F80
F380
E1C0
E1C0
E7C0
E700
EE00
EE00
EE00
E600
E380
E1C0
E0E0
E070
E070
E070
E8F0
EFE0
E7C0
ENDCHAR
STARTCHAR agrave
ENCODING 224
SWIDTH 602 0
DWIDTH 16 0
BBX 12 21 2 0
BITMAP
3800
1C00
0C00
0600
0300
0000
0000
1F80
7FE0
40E0
0070
0070
1FF0
7FF0
F070
E070
E070
E0F0
F1F0
7F70
3E70
ENDCHAR
STARTCHAR aacute
ENCODING 225
SWIDTH 602 0
DWIDTH 16 0
BBX 12 21 2 0
BITMAP
01C0
0380
0300
0600
0C00
0000
0000
1F80
7FE0
40E0
0070
0070
1FF0
7FF0
F070
E070
E070
E0F0
F1F0
7F70
3E70
ENDCHAR
STARTCHAR acircumflex
ENCODING 226
SWIDTH 602 0
DWIDTH 16 0
BBX 12 21 2 0
BITMAP
0600
0F00
0900
1980
30C0
0000
0000
1F80
7FE0
40E0
0070
0070
1FF0
7FF0
F070
E070
E070
E0F0
F1F0
7F70
3E70
ENDCHAR
STARTCHAR atilde
ENCODING 227
SWIDTH 602 0
DWIDTH 16 0
BBX 12 20 2 0
BITMAP
1CC0
3CC0
33C0
3380
0000
0000
1F80
7FE0
40E0
0070
0070
1FF0
7FF0
F070
E070
E070
E0F0
F1F0
7F70
3E70
ENDCHAR
STARTCHAR adieresis
ENCODING 228
SWIDTH 602 0
DWIDTH 16 0
BBX 12 20 2 0
BITMAP
39C0
39C0
39C0
0000
0000
0000
1F80
7FE0
40E0
0070
0070
1FF0
7FF0
F070
E070
E070
E0F0
F1F0
7F70
3E70
ENDCHAR
STARTCHAR aring
ENCODING 229
SWIDTH 602 0
DWIDTH 16 0
BBX 12 23 2 0
BITMAP
0E00
1F00
3180
3180
3180
1F00
0E00
0000
0000
1F80
7FE0
40E0
0070
0070
1FF0
7FF0
F070
E070
E070
E0F0
F1F0
7F70
3E70
ENDCHAR
STARTCHAR ae
ENCODING 230
SWIDTH 602 0
DWIDTH 16 0
BBX 15 14 1 0
BITMAP
3E78
7F7C
43CE
01CE
01CE
01CE
1FFE
7FFE
F1C0
E1C0
E1C0
F3E2
7F7E
3E3C
ENDCHAR
STARTCHAR ccedilla
ENCODING 231
SWIDTH 602 0
DWIDTH 16 0
BBX 11 19 2 -5
BITMAP
0F80
3FC0
7860
7000
E000
E000
E000
E000
E000
E000
7000
7860
3FC0
0F80
0300
0180
0180
0F80
0F00
ENDCHAR
STARTCHAR egrave
ENCODING 232
SWIDTH 602 0
DWIDTH 16 0
BBX 13 21 2 0
BITMAP
3800
1C00
0C00
0600
0300
0000
0000
0FC0
3FE0
78F0
7070
E038
E038
FFF8
FFF8
E000
E000
7000
7830
3FF0
0FC0
ENDCHAR
STARTCHAR eacute
ENCODING 233
SWIDTH 602 0
DWIDTH 16 0
BBX 13 21 2 0
BITMAP
01C0
0380
0300
0600
0C00
0000
0000
0FC0
3FE0
78F0
7070
E038
E038
FFF8
FFF8
E000
E000
7000
7830
3FF0
0FC0
ENDCHAR
STARTCHAR ecircumflex
ENCODING 234
SWIDTH 602 0
DWIDTH 16 0
BBX 13 21 2 0
BITMAP
0600
0F00
0900
1980
30C0
0000
0000
0FC0
3FE0
78F0
7070
E038
E038
FFF8
FFF8
E000
E000
7000
7830
3FF0
0FC0
ENDCHAR
STARTCHAR edieresis
ENCODING 235
SWIDTH 602 0
DWIDTH 16 0
BBX 13 20 2 0
BITMAP
39C0
39C0
39C0
0000
0000
0000
0FC0
3FE0
78F0
7070
E038
E038
FFF8
FFF8
E000
E000
7000
7830
3FF0
0FC0
ENDCHAR
STARTCHAR igrave
ENCODING 236
SWIDTH 602 0
DWIDTH 16 0
BBX 13 21 2 0
BITMAP
3800
1C00
0C00
0600
0300
0000
0000
7F00
7F00
0700
0700
0700
0700
0700
0700
0700
0700
0700
0700
FFF8
FFF8
ENDCHAR
STARTCHAR iacute
ENCODING 237
SWIDTH 602 0
DWIDTH 16 0
BBX 13 21 2 0
BITMAP
01C0
0380
0300
0600
0C00
0000
0000
7F00
7F00
0700
0700
0700
0700
0700
0700
0700
0700
0700
0700
FFF8
FFF8
ENDCHAR
STARTCHAR icircumflex
ENCODING 238
SWIDTH 602 0
DWIDTH 16 0
BBX 13 21 2 0
BITMAP
0600
0F00
0900
1980
30C0
0000
0000
7F00
7F00
0700
0700
0700
0700
0700
0700
0700
0700
0700
0700
FFF8
FFF8
ENDCHAR
STARTCHAR idieresis
ENCODING 239
SWIDTH 602 0
DWIDTH 16 0
BBX 13 20 2 0
BITMAP
39C0
39C0
39C0
0000
0000
0000
7F00
7F00
0700
0700
0700
0700
0700
0700
0700
0700
0700
0700
FFF8
FFF8
ENDCHAR
STARTCHAR eth
ENCODING 240
SWIDTH 602 0
DWIDTH 16 0
BBX 12 20 2 0
BITMAP
3800
3DC0
1F00
3F00
2F00
0780
1FC0
3FE0
78E0
70E0
E070
E070
E070
E070
E070
E070
70E0
79E0
3FC0
1F80
ENDCHAR
STARTCHAR ntilde
ENCODING 241
SWIDTH 602 0
DWIDTH 16 0
BBX 11 20 2 0
BITMAP
1CC0
3CC0
33C0
3380
0000
0000
E780
EFC0
F1E0
E0E0
E0E0
E0E0
E0E0
E0E0
E0E0
E0E0
E0E0
E0E0
E0E0
E0E0
ENDCHAR
STARTCHAR ograve
ENCODING 242
SWIDTH 602 0
DWIDTH 16 0
BBX 12 21 2 0
BITMAP
3800
1C00
0C00
0600
0300
0000
0000
1F80
3FC0
70E0
70E0
E070
E070
E070
E070
E070
E070
70E0
70E0
3FC0
1F80
ENDCHAR
STARTCHAR oacute
ENCODING 243
SWIDTH 602 0
DWIDTH 16 0
BBX 12 21 2 0
BITMAP
01C0
0380
0300
0600
0C00
0000
0000
1F80
3FC0
70E0
70E0
E070
E070
E070
E070
E070
E070
70E0
70E0
3FC0
1F80
ENDCHAR
STARTCHAR ocircumflex
ENCODING 244
SWIDTH 602 0
DWIDTH 16 0
BBX 12 21 2 0
BITMAP
0600
0F00
0900
1980
30C0
0000
0000
1F80
3FC0
70E0
70E0
E070
E070
E070
E070
E070
E070
70E0
70E0
3FC0
1F80
ENDCHAR
STARTCHAR otilde
ENCODING 245
SWIDTH 602 0
DWIDTH 16 0
BBX 12 20 2 0
BITMAP
1CC0
3CC0
33C0
3380
0000
0000
1F80
3FC0
70E0
70E0
E070
E070
E070
E070
E070
E070
70E0
70E0
3FC0
1F80
ENDCHAR
STARTCHAR odieresis
ENCODING 246
SWIDTH 602 0
DWIDTH 16 0
BBX 12 20 2 0
BITMAP
39C0
39C0
39C0
0000
0000
0000
1F80
3FC0
70E0
70E0
E070
E070
E070
E070
E070
E070
70E0
70E0
3FC0
1F80
ENDCHAR
STARTCHAR divide
ENCODING 247
SWIDTH 602 0
DWIDTH 16 0
BBX 13 12 1 2
BITMAP
0700
0700
0700
0000
0000
FFF8
FFF8
0000
0000
0700
0700
0700
ENDCHAR
STARTCHAR oslash
ENCODING 248
SWIDTH 602 0
DWIDTH 16 0
BBX 14 16 1 -1
BITMAP
0008
0F9C
1FF8
3870
7870
70F8
71B8
7138
7238
7638
7C38
3870
3870
7FE0
C7C0
8000
ENDCHAR
STARTCHAR ugrave
ENCODING 249
SWIDTH 602 0
DWIDTH 16 0
BBX 11 21 2 0
BITMAP
3800
1C00
0C00
0600
0300
0000
0000
E0E0
E0E0
E0E0
E0E0
E0E0
E0E0
E0E0
E0E0
E0E0
E0E0
E1E0
F1E0
7EE0
3CE0
ENDCHAR
STARTCHAR uacute
ENCODING 250
SWIDTH 602 0
DWIDTH 16 0
BBX 11 21 2 0
BITMAP
01C0
0380
0300
0600
0C00
0000
0000
E0E0
E0E0
E0E0
E0E0
E0E0
E0E0
E0E0
E0E0
E0E0
E0E0
E1E0
F1E0
7EE0
3CE0
ENDCHAR
STARTCHAR ucircumflex
ENCODING 251
SWIDTH 602 0
DWIDTH 16 0
BBX 11 21 2 0
BITMAP
0600
0F00
0900
1980
30C0
0000
0000
E0E0
E0E0
E0E0
E0E0
E0E0
E0E0
E0E0
E0E0
E0E0
E0E0
E1E0
F1E0
7EE0
3CE0
ENDCHAR
STARTCHAR udieresis
ENCODING 252
SWIDTH 602 0
DWIDTH 16 0
BBX 11 20 2 0
BITMAP
39C0
39C0
39C0
0000
0000
0000
E0E0
E0E0
E0E0
E0E0
E0E0
E0E0
E0E0
E0E0
E0E0
E0E0
E1E0
F1E0
7EE0
3CE0
ENDCHAR
STARTCHAR yacute
ENCODING 253
SWIDTH 602 0
DWIDTH 16 0
BBX 13 26 1 -5
BITMAP
00E0
01C0
0180
0300
0600
0000
0000
E038
7070
7070
78F0
38E0
38E0
1DC0
1DC0
1FC0
0F80
0F80
0700
0700
0700
0E00
0E00
1E00
7C00
7800
ENDCHAR
STARTCHAR thorn
ENCODING 254
SWIDTH 602 0
DWIDTH 16 0
BBX 12 25 2 -5
BITMAP
E000
E000
E000
E000
E000
E000
E780
FFC0
F0E0
F0E0
E070
E070
E070
E070
E070
E070
F0E0
F0E0
FFC0
E780
E000
E000
E000
E000
E000
ENDCHAR
STARTCHAR ydieresis
ENCODING 255
SWIDTH 602 0
DWIDTH 16 0
BBX 13 25 1 -5
BITMAP
1CE0
1CE0
1CE0
0000
0000
0000
E038
7070
7070
78F0
38E0
38E0
1DC0
1DC0
1FC0
0F80
0F80
0700
0700
0700
0E00
0E00
1E00
7C00
7800
ENDCHAR
STARTCHAR .notdef
ENCODING -1
SWIDTH 602 0
DWIDTH 16 0
BBX 13 23 1 -5
BITMAP
FFF8
8008
8008
8008
8008
8008
8008
8008
8008
8008
8008
8008
8008
8008
8008
8008
8008
8008
8008
8008
8008
8008
FFF8
ENDCHAR
STARTCHAR .null
ENCODING -1
SWIDTH 0 0
DWIDTH 0 0
BBX 1 1 0 0
BITMAP
00
ENDCHAR
STARTCHAR nonmarkingreturn
ENCODING -1
SWIDTH 602 0
DWIDTH 16 0
BBX 1 1 0 0
BITMAP
00
ENDCHAR
STARTCHAR dagger
ENCODING -1
SWIDTH 602 0
DWIDTH 16 0
BBX 12 22 2 -3
BITMAP
0600
0600
0600
0600
0600
FFF0
FFF0
0600
0600
0600
0600
0600
0600
0600
0600
0600
0600
0600
0600
0600
0600
0600
ENDCHAR
STARTCHAR bullet
ENCODING -1
SWIDTH 602 0
DWIDTH 16 0
BBX 8 8 4 5
BITMAP
3C
7E
FF
FF
FF
FF
7E
3C
ENDCHAR
STARTCHAR trademark
ENCODING -1
SWIDTH 602 0
DWIDTH 16 0
BBX 14 7 0 12
BITMAP
FB0C
239C
22F4
2264
2264
2204
2204
ENDCHAR
STARTCHAR notequal
ENCODING -1
SWIDTH 602 0
DWIDTH 16 0
BBX 13 15 1 1
BITMAP
0010
0030
0070
00E0
FFF8
FFF8
0380
0700
0E00
FFF8
FFF8
3800
7000
6000
4000
ENDCHAR
STARTCHAR infinity
ENCODING -1
SWIDTH 602 0
DWIDTH 16 0
BBX 15 10 1 3
BITMAP
3838
7EFC
E6CC
C386
C386
C386
C386
E6CE
7C7C
3838
ENDCHAR
STARTCHAR lessequal
ENCODING -1
SWIDTH 602 0
DWIDTH 16 0
BBX 13 14 1 0
BITMAP
0018
0078
03F8
1FC0
FC00
E000
FC00
1FC0
03F8
0078
0018
0000
FFF8
FFF8
ENDCHAR
STARTCHAR greaterequal
ENCODING -1
SWIDTH 602 0
DWIDTH 16 0
BBX 13 14 1 0
BITMAP
C000
F000
FE00
1FC0
01F8
0038
01F8
1FC0
FE00
F000
8000
0000
FFF8
FFF8
ENDCHAR
STARTCHAR partialdiff
ENCODING -1
SWIDTH 602 0
DWIDTH 16 0
BBX 11 17 2 0
BITMAP
0F00
1F80
3CC0
0040
0060
0060
0060
1E60
7160
60E0
C0E0
C0C0
C0C0
C0C0
C180
6300
3E00
ENDCHAR
STARTCHAR summation
ENCODING -1
SWIDTH 602 0
DWIDTH 16 0
BBX 12 25 2 -6
BITMAP
FFF0
FFF0
6000
6000
3000
1800
1800
0C00
0600
0600
0300
0180
0180
0300
0700
0600
0C00
0C00
1800
1800
3000
6000
6000
FFF0
FFF0
ENDCHAR
STARTCHAR product
ENCODING -1
SWIDTH 602 0
DWIDTH 16 0
BBX 12 25 2 -6
BITMAP
FFF0
FFF0
C030
C030
C030
C030
C030
C030
C030
C030
C030
C030
C030
C030
C030
C030
C030
C030
C030
C030
C030
C030
C030
C030
C030
ENDCHAR
STARTCHAR pi
ENCODING -1
SWIDTH 602 0
DWIDTH 16 0
BBX 14 14 1 0
BITMAP
FFFC
FFFC
3030
3030
3030
3030
3030
3030
3030
3030
3030
3030
303C
301C
ENDCHAR
STARTCHAR integral
ENCODING -1
SWIDTH 602 0
DWIDTH 16 0
BBX 13 24 2 -4
BITMAP
00F0
01B8
01B8
0300
0300
0300
0700
0700
0700
0700
0700
0700
0700
0700
0700
0700
0700
0700
0600
0600
0600
EC00
EC00
7000
ENDCHAR
STARTCHAR Omega
ENCODING -1
SWIDTH 602 0
DWIDTH 16 0
BBX 13 18 1 0
BITMAP
0F80
3FC0
38E0
6030
6030
C018
C018
C018
C018
C018
C018
C018
6030
6030
7070
3060
F8F8
F8F8
ENDCHAR
STARTCHAR radical
ENCODING -1
SWIDTH 602 0
DWIDTH 16 0
BBX 14 22 1 0
BITMAP
000C
000C
0018
0018
0018
0030
0030
0030
0020
0060
7060
F040
30C0
18C0
1880
1980
0980
0D00
0F00
0700
0600
0600
ENDCHAR
STARTCHAR florin
ENCODING -1
SWIDTH 602 0
DWIDTH 16 0
BBX 15 25 0 -5
BITMAP
001C
007E
0070
00E0
00E0
00E0
00E0
01E0
01C0
0FF8
0FF8
01C0
01C0
01C0
0380
0380
0380
0380
0380
0700
0700
0700
8E00
FE00
7800
ENDCHAR
STARTCHAR approxequal
ENCODING -1
SWIDTH 602 0
DWIDTH 16 0
BBX 13 9 1 4
BITMAP
3C00
FF18
C3F8
01E0
0000
3C08
FF18
C3F8
01E0
ENDCHAR
STARTCHAR Delta
ENCODING -1
SWIDTH 602 0
DWIDTH 16 0
BBX 16 18 0 0
BITMAP
0380
03C0
03C0
07E0
07E0
07E0
0E70
0E70
1E70
1C38
1C38
3C3C
381C
381C
781E
700E
7FFE
FFFF
ENDCHAR
STARTCHAR ellipsis
ENCODING -1
SWIDTH 602 0
DWIDTH 16 0
BBX 13 4 1 0
BITMAP
E738
E738
E738
E738
ENDCHAR
STARTCHAR OE
ENCODING -1
SWIDTH 602 0
DWIDTH 16 0
BBX 15 19 1 0
BITMAP
0FFE
3FFE
78E0
70E0
60E0
E0E0
E0E0
E0E0
E0FC
E0FC
E0E0
E0E0
E0E0
E0E0
60E0
70E0
78E0
3FFE
0FFE
ENDCHAR
STARTCHAR oe
ENCODING -1
SWIDTH 602 0
DWIDTH 16 0
BBX 15 14 0 0
BITMAP
3E38
7F7C
73CE
E1CE
E1CE
E1CE
E1FE
E1FE
E1C0
E1C0
E1C0
73E2
7F7E
3E3C
ENDCHAR
STARTCHAR endash
ENCODING -1
SWIDTH 602 0
DWIDTH 16 0
BBX 16 2 0 6
BITMAP
FFFF
FFFF
ENDCHAR
STARTCHAR emdash
ENCODING -1
SWIDTH 602 0
DWIDTH 16 0
BBX 16 2 0 6
BITMAP
FFFF
FFFF
ENDCHAR
STARTCHAR quotedblleft
ENCODING -1
SWIDTH 602 0
DWIDTH 16 0
BBX 10 7 3 13
BITMAP
30C0
71C0
6180
E380
E380
E380
E380
ENDCHAR
STARTCHAR quotedblright
ENCODING -1
SWIDTH 602 0
DWIDTH 16 0
BBX 10 7 3 13
BITMAP
71C0
71C0
71C0
71C0
6180
E380
C300
ENDCHAR
STARTCHAR quoteleft
ENCODING -1
SWIDTH 602 0
DWIDTH 16 0
BBX 4 7 6 13
BITMAP
30
70
60
E0
E0
E0
E0
ENDCHAR
STARTCHAR quoteright
ENCODING -1
SWIDTH 602 0
DWIDTH 16 0
BBX 4 7 6 13
BITMAP
70
70
70
70
60
E0
C0
ENDCHAR
STARTCHAR lozenge
ENCODING -1
SWIDTH 602 0
DWIDTH 16 0
BBX 13 27 1 -6
BITMAP
0200
0200
0700
0500
0D80
0880
18C0
1040
3060
2020
6030
4010
C018
C018
C018
4010
6030
2020
3060
1040
18C0
0880
0D80
0500
0700
0200
0200
ENDCHAR
STARTCHAR Ydieresis
ENCODING -1
SWIDTH 602 0
DWIDTH 16 0
BBX 15 24 1 0
BITMAP
1CE0
1CE0
1CE0
0000
0000
F01E
701C
783C
3838
1C70
1EF0
0EE0
0FE0
07C0
07C0
0380
0380
0380
0380
0380
0380
0380
0380
0380
ENDCHAR
STARTCHAR fraction
ENCODING -1
SWIDTH 602 0
DWIDTH 16 0
BBX 13 21 1 -2
BITMAP
0038
0070
0070
00E0
00E0
01C0
01C0
0380
0380
0700
0700
0700
0E00
0E00
1C00
1C00
3800
3800
7000
7000
E000
ENDCHAR
STARTCHAR guilsinglleft
ENCODING -1
SWIDTH 602 0
DWIDTH 16 0
BBX 6 12 4 1
BITMAP
04
0C
1C
38
70
E0
E0
70
38
1C
0C
04
ENDCHAR
STARTCHAR guilsinglright
ENCODING -1
SWIDTH 602 0
DWIDTH 16 0
BBX 6 12 5 1
BITMAP
80
C0
E0
70
38
1C
1C
38
70
E0
C0
80
ENDCHAR
STARTCHAR fi
ENCODING -1
SWIDTH 602 0
DWIDTH 16 0
BBX 14 20 0 0
BITMAP
07FC
0FFC
1E1C
1C00
1C00
1C00
FFFC
FFFC
1C1C
1C1C
1C1C
1C1C
1C1C
1C1C
1C1C
1C1C
1C1C
1C1C
1C1C
1C1C
ENDCHAR
STARTCHAR fl
ENCODING -1
SWIDTH 602 0
DWIDTH 16 0
BBX 14 20 0 0
BITMAP
07FC
0FFC
1E1C
1C1C
1C1C
1C1C
FFDC
FFDC
1C1C
1C1C
1C1C
1C1C
1C1C
1C1C
1C1C
1C1C
1C1C
1C1C
1C1C
1C1C
ENDCHAR
STARTCHAR daggerdbl
ENCODING -1
SWIDTH 602 0
DWIDTH 16 0
BBX 12 22 2 -3
BITMAP
0600
0600
0600
0600
0600
FFF0
FFF0
0600
0600
0600
0600
0600
0600
0600
0600
FFF0
FFF0
0600
0600
0600
0600
0600
ENDCHAR
STARTCHAR quotesinglbase
ENCODING -1
SWIDTH 602 0
DWIDTH 16 0
BBX 4 7 5 -3
BITMAP
70
70
70
70
60
E0
C0
ENDCHAR
STARTCHAR quotedblbase
ENCODING -1
SWIDTH 602 0
DWIDTH 16 0
BBX 10 7 3 -3
BITMAP
71C0
71C0
71C0
71C0
6180
E380
C300
ENDCHAR
STARTCHAR perthousand
ENCODING -1
SWIDTH 602 0
DWIDTH 16 0
BBX 15 19 0 0
BITMAP
3800
7C00
C600
C600
C608
7C30
38E0
0380
0E00
1C00
7000
4000
1C38
3E7C
63C6
63C6
63C6
3E7C
1C38
ENDCHAR
STARTCHAR dotlessi
ENCODING -1
SWIDTH 602 0
DWIDTH 16 0
BBX 13 14 2 0
BITMAP
7F00
7F00
0700
0700
0700
0700
0700
0700
0700
0700
0700
0700
FFF8
FFF8
ENDCHAR
STARTCHAR circumflex
ENCODING -1
SWIDTH 602 0
DWIDTH 16 0
BBX 8 5 4 16
BITMAP
18
3C
24
66
C3
ENDCHAR
STARTCHAR tilde
ENCODING -1
SWIDTH 602 0
DWIDTH 16 0
BBX 8 4 4 16
BITMAP
73
F3
CF
CE
ENDCHAR
STARTCHAR breve
ENCODING -1
SWIDTH 602 0
DWIDTH 16 0
BBX 8 4 4 17
BITMAP
C3
E7
7E
3C
ENDCHAR
STARTCHAR dotaccent
ENCODING -1
SWIDTH 602 0
DWIDTH 16 0
BBX 3 3 7 17
BITMAP
E0
E0
E0
ENDCHAR
STARTCHAR ring
ENCODING -1
SWIDTH 602 0
DWIDTH 16 0
BBX 7 7 4 16
BITMAP
38
7C
C6
C6
C6
7C
38
ENDCHAR
STARTCHAR hungarumlaut
ENCODING -1
SWIDTH 602 0
DWIDTH 16 0
BBX 9 5 4 16
BITMAP
3980
3300
6600
6600
CC00
ENDCHAR
STARTCHAR ogonek
ENCODING -1
SWIDTH 602 0
DWIDTH 16 0
BBX 5 5 5 -5
BITMAP
60
C0
C0
F8
78
ENDCHAR
STARTCHAR caron
ENCODING -1
SWIDTH 602 0
DWIDTH 16 0
BBX 8 5 4 16
BITMAP
C3
66
24
3C
18
ENDCHAR
STARTCHAR Lslash
ENCODING -1
SWIDTH 602 0
DWIDTH 16 0
BBX 13 19 0 0
BITMAP
7000
7000
7000
7000
7000
7100
7380
7700
7C00
7800
7000
F000
F000
7000
7000
7000
7000
7FF8
7FF8
ENDCHAR
STARTCHAR lslash
ENCODING -1
SWIDTH 602 0
DWIDTH 16 0
BBX 13 20 1 0
BITMAP
7F00
7F00
0700
0700
0700
0718
0770
07E0
07C0
0F00
1F00
7700
E700
0700
0700
0700
0700
0780
03F8
01F8
ENDCHAR
STARTCHAR Scaron
ENCODING -1
SWIDTH 602 0
DWIDTH 16 0
BBX 12 24 1 0
BITMAP
1860
0CC0
0780
0000
0000
1FC0
3FE0
7860
E020
E000
E000
F000
FC00
7F80
3FE0
03E0
00F0
0070
0070
0070
8070
E1E0
FFC0
3F80
ENDCHAR
STARTCHAR scaron
ENCODING -1
SWIDTH 602 0
DWIDTH 16 0
BBX 10 21 3 0
BITMAP
6180
3300
1200
1E00
0C00
0000
0000
3F00
7F80
F080
E000
F000
FE00
7F80
1FC0
03C0
01C0
01C0
83C0
FF80
7F00
ENDCHAR
STARTCHAR Zcaron
ENCODING -1
SWIDTH 602 0
DWIDTH 16 0
BBX 13 24 1 0
BITMAP
1860
0CC0
0780
0000
0000
FFF8
FFF8
0078
00F0
00E0
01E0
01C0
03C0
0780
0700
0F00
1E00
1C00
3C00
3800
7800
F000
FFF8
FFF8
ENDCHAR
STARTCHAR zcaron
ENCODING -1
SWIDTH 602 0
DWIDTH 16 0
BBX 11 21 3 0
BITMAP
6180
3300
1200
1E00
0C00
0000
0000
FFE0
FFE0
01E0
03C0
0780
0700
0F00
1E00
3C00
3800
7800
F000
FFE0
FFE0
ENDCHAR
STARTCHAR minus
ENCODING -1
SWIDTH 602 0
DWIDTH 16 0
BBX 13 2 1 7
BITMAP
FFF8
FFF8
ENDCHAR
STARTCHAR Gbreve
ENCODING -1
SWIDTH 602 0
DWIDTH 16 0
BBX 13 24 1 0
BITMAP
1860
1FE0
0780
0000
0000
07E0
1FF0
3C30
7010
7000
E000
E000
E000
E000
E1F8
E1F8
E038
E038
E038
7038
7038
3838
1FF8
07E0
ENDCHAR
STARTCHAR gbreve
ENCODING -1
SWIDTH 602 0
DWIDTH 16 0
BBX 12 26 2 -5
BITMAP
30C0
39C0
1F80
0F00
0000
0000
0000
1E70
3FF0
78F0
70F0
E070
E070
E070
E070
E070
E070
70F0
78F0
3F70
1E70
0070
0070
20E0
3FC0
1F80
ENDCHAR
STARTCHAR Idotaccent
ENCODING -1
SWIDTH 602 0
DWIDTH 16 0
BBX 11 24 3 0
BITMAP
0E00
0E00
0E00
0000
0000
FFE0
FFE0
0E00
0E00
0E00
0E00
0E00
0E00
0E00
0E00
0E00
0E00
0E00
0E00
0E00
0E00
0E00
FFE0
FFE0
ENDCHAR
STARTCHAR Scedilla
ENCODING -1
SWIDTH 602 0
DWIDTH 16 0
BBX 12 24 1 -5
BITMAP
1FC0
3FE0
7860
E020
E000
E000
F000
FC00
7F80
3FE0
03E0
00F0
0070
0070
0070
8070
E1E0
FFC0
3F80
0300
0180
0180
0F80
0F00
ENDCHAR
STARTCHAR scedilla
ENCODING -1
SWIDTH 602 0
DWIDTH 16 0
BBX 10 19 3 -5
BITMAP
3F00
7F80
F080
E000
F000
FE00
7F80
1FC0
03C0
01C0
01C0
83C0
FF80
7F00
0C00
0600
0600
3E00
3C00
ENDCHAR
STARTCHAR Cacute
ENCODING -1
SWIDTH 602 0
DWIDTH 16 0
BBX 12 24 1 0
BITMAP
00E0
01C0
0380
0000
0000
07E0
1FF0
3C30
7810
7000
E000
E000
E000
E000
E000
E000
E000
E000
E000
7000
7010
3C30
1FF0
07E0
ENDCHAR
STARTCHAR cacute
ENCODING -1
SWIDTH 602 0
DWIDTH 16 0
BBX 11 21 2 0
BITMAP
00E0
01C0
0180
0300
0600
0000
0000
0F80
3FC0
7860
7000
E000
E000
E000
E000
E000
E000
7000
7860
3FC0
0F80
ENDCHAR
STARTCHAR Ccaron
ENCODING -1
SWIDTH 602 0
DWIDTH 16 0
BBX 12 24 1 0
BITMAP
0C30
0660
03C0
0000
0000
07E0
1FF0
3C30
7810
7000
E000
E000
E000
E000
E000
E000
E000
E000
E000
7000
7010
3C30
1FF0
07E0
ENDCHAR
STARTCHAR ccaron
ENCODING -1
SWIDTH 602 0
DWIDTH 16 0
BBX 11 21 2 0
BITMAP
1860
0CC0
0480
0780
0300
0000
0000
0F80
3FC0
7860
7000
E000
E000
E000
E000
E000
E000
7000
7860
3FC0
0F80
ENDCHAR
STARTCHAR dcroat
ENCODING -1
SWIDTH 602 0
DWIDTH 16 0
BBX 14 20 2 0
BITMAP
0070
0070
0070
07FC
07FC
0070
1E70
3FF0
71F0
F0F0
E070
E070
E070
E070
E070
E070
70F0
71F0
3FF0
1E70
ENDCHAR
STARTCHAR periodcentered
ENCODING -1
SWIDTH 602 0
DWIDTH 16 0
BBX 3 4 6 7
BITMAP
E0
E0
E0
E0
ENDCHAR
STARTCHAR Euro
ENCODING -1
SWIDTH 602 0
DWIDTH 16 0
BBX 13 19 1 0
BITMAP
03F0
07F8
0E18
1C00
1C00
3800
FFE0
FFC0
3800
3800
FF80
FF80
3800
3800
1C00
1C00
0E18
07F8
03F0
ENDCHAR
STARTCHAR c6459
ENCODING -1
SWIDTH 602 0
DWIDTH 16 0
BBX 8 3 4 16
BITMAP
E7
E7
E7
ENDCHAR
STARTCHAR c6460
ENCODING -1
SWIDTH 602 0
DWIDTH 16 0
BBX 5 3 6 16
BITMAP
38
70
E0
ENDCHAR
STARTCHAR c6461
ENCODING -1
SWIDTH 602 0
DWIDTH 16 0
BBX 8 3 4 16
BITMAP
73
FF
CE
ENDCHAR
STARTCHAR c6468
ENCODING -1
SWIDTH 602 0
DWIDTH 16 0
BBX 5 3 5 16
BITMAP
E0
70
38
ENDCHAR
STARTCHAR c6470
ENCODING -1
SWIDTH 602 0
DWIDTH 16 0
BBX 8 3 4 16
BITMAP
3C
66
C3
ENDCHAR
STARTCHAR c6472
ENCODING -1
SWIDTH 602 0
DWIDTH 16 0
BBX 8 3 4 16
BITMAP
C3
66
3C
ENDCHAR
STARTCHAR c6477
ENCODING -1
SWIDTH 602 0
DWIDTH 16 0
BBX 14 4 0 7
BITMAP
001C
01F0
3E00
E000
ENDCHAR
STARTCHAR c6478
ENCODING -1
SWIDTH 602 0
DWIDTH 16 0
BBX 8 11 3 8
BITMAP
0E
0E
1E
16
26
66
46
C6
FF
06
06
ENDCHAR
STARTCHAR c6475
ENCODING -1
SWIDTH 602 0
DWIDTH 16 0
BBX 8 3 4 16
BITMAP
C3
FF
3C
ENDCHAR
STARTCHAR c6476
ENCODING -1
SWIDTH 602 0
DWIDTH 16 0
BBX 3 3 7 16
BITMAP
E0
E0
E0
ENDCHAR
ENDFONT
